<svg xmlns="http://www.w3.org/2000/svg" width="1400" height="900" viewBox="0 0 1400 900">
<style>.title{fill:#1f2937;stroke:#111827;stroke-width:2}.titleText{fill:white;font:700 22px Arial}.folder{fill:#dae8fc;stroke:#6c8ebf;stroke-width:2}.core{fill:#f8cecc;stroke:#b85450;stroke-width:2}.script{fill:#d5e8d4;stroke:#82b366;stroke-width:2}.ref{fill:#fff2cc;stroke:#d6b656;stroke-width:2}.out{fill:#e1d5e7;stroke:#9673a6;stroke-width:2}.note{fill:#f5f5f5;stroke:#666;stroke-width:2}text{font-family:Arial,sans-serif;font-size:14px;fill:#111827}.h{font-weight:700;font-size:16px}.small{font-size:12px;fill:#374151}.edge{stroke:#666;stroke-width:2;fill:none;marker-end:url(#arrow)}.dash{stroke:#d6b656;stroke-dasharray:6 5}</style>
<defs><marker id="arrow" markerWidth="10" markerHeight="10" refX="8" refY="3" orient="auto"><path d="M0,0 L0,6 L9,3 z" fill="#666"/></marker></defs>
<rect class="title" x="330" y="25" width="740" height="60" rx="10"/><text class="titleText" x="700" y="62" text-anchor="middle">mask/ skill — cryo-EM mask generation</text>
<rect class="folder" x="60" y="120" width="210" height="70" rx="10"/><text class="h" x="80" y="150">mask/</text><text x="80" y="172">Skill package root</text>
<rect class="core" x="330" y="105" width="360" height="100" rx="10"/><text class="h" x="350" y="135">SKILL.md</text><text x="350" y="158">Entry point, quick starts, critical rules,</text><text x="350" y="179">CryoSPARC handoff</text>
<rect class="folder" x="60" y="285" width="250" height="75" rx="10"/><text class="h" x="80" y="315">scripts/</text><text x="80" y="338">Executable ChimeraX --nogui workflows</text>
<rect class="folder" x="60" y="560" width="250" height="75" rx="10"/><text class="h" x="80" y="590">references/</text><text x="80" y="613">Theory, parameters, GUI-only methods</text>
<rect class="out" x="70" y="235" width="220" height="110" rx="10"/><text class="h" x="90" y="265">Inputs</text><text x="90" y="288">model.pdb/cif + target map</text><text x="90" y="310">selection atomspec</text>
<rect class="out" x="70" y="395" width="220" height="90" rx="10"/><text class="h" x="90" y="425">Fallback input</text><text x="90" y="448">map.mrc only</text>
<rect class="out" x="70" y="510" width="220" height="110" rx="10"/><text class="h" x="90" y="540">Complement inputs</text><text x="90" y="563">full mask + region mask</text><text x="90" y="585">target map</text>
<rect class="script" x="380" y="250" width="360" height="115" rx="10"/><text class="h" x="400" y="280">make_mask_from_model.py</text><text x="400" y="303">primary: molmap → binarize/dilate</text><text x="400" y="325">→ soft edge → resample</text>
<rect class="script" x="380" y="395" width="360" height="95" rx="10"/><text class="h" x="400" y="425">make_mask_from_map.py</text><text x="400" y="448">fallback: blur + threshold + soft edge</text>
<rect class="script" x="380" y="520" width="360" height="95" rx="10"/><text class="h" x="400" y="550">make_complement_mask.py</text><text x="400" y="573">region mask → complementary subtraction mask</text>
<rect class="ref" x="830" y="255" width="330" height="80" rx="10"/><text class="h" x="850" y="285">mask_theory.md</text><text x="850" y="308">soft edge, pitfalls, FSC tells</text>
<rect class="ref" x="830" y="355" width="330" height="80" rx="10"/><text class="h" x="850" y="385">cryosparc_volume_tools.md</text><text x="850" y="408">Import 3D Volumes + Volume Tools</text>
<rect class="ref" x="830" y="455" width="330" height="80" rx="10"/><text class="h" x="850" y="485">chimerax_commands.md</text><text x="850" y="508">molmap / gaussian / resample reference</text>
<rect class="ref" x="830" y="555" width="330" height="80" rx="10"/><text class="h" x="850" y="585">gui_methods.md</text><text x="850" y="608">Segger + Volume Eraser GUI reference</text>
<rect class="out" x="1210" y="330" width="160" height="150" rx="10"/><text class="h" x="1230" y="360">Output</text><text x="1230" y="383">mask_base.mrc</text><text class="small" x="1230" y="406">same box + apix</text><text class="small" x="1230" y="429">as target map</text><text class="small" x="1230" y="452">+ .json sidecar</text>
<rect class="note" x="1180" y="520" width="200" height="120" rx="10"/><text class="h" x="1200" y="550">CryoSPARC handoff</text><text x="1200" y="573">A: final mask</text><text x="1200" y="596">B: mask base →</text><text x="1200" y="619">Volume Tools</text>
<path class="edge" d="M270 155 L330 155"/><path class="edge" d="M185 190 L185 285"/><path class="edge" d="M185 360 L185 560"/><path class="edge" d="M310 322 L380 307"/><path class="edge" d="M290 290 L380 307"/><path class="edge" d="M290 440 L380 442"/><path class="edge" d="M290 565 L380 568"/><path class="edge" d="M740 307 L1210 392"/><path class="edge" d="M740 442 L1210 405"/><path class="edge" d="M740 568 L1210 430"/><path class="edge" d="M1290 480 L1290 520"/><path class="edge dash" d="M830 295 L740 300"/><path class="edge dash" d="M830 495 L740 318"/><path class="edge dash" d="M995 435 L1240 520"/>
</svg>